<?xml version="1.0" encoding="UTF-8" standalone="no"?>
<!-- Created with Inkscape (http://www.inkscape.org/) -->

<svg
   xmlns:dc="http://purl.org/dc/elements/1.1/"
   xmlns:cc="http://creativecommons.org/ns#"
   xmlns:rdf="http://www.w3.org/1999/02/22-rdf-syntax-ns#"
   xmlns:svg="http://www.w3.org/2000/svg"
   xmlns="http://www.w3.org/2000/svg"
   xmlns:sodipodi="http://sodipodi.sourceforge.net/DTD/sodipodi-0.dtd"
   xmlns:inkscape="http://www.inkscape.org/namespaces/inkscape"
   width="120.36159mm"
   height="48.370003mm"
   viewBox="0 0 426.47807 171.38977"
   id="svg5187"
   version="1.1"
   inkscape:version="0.91 r13725"
   sodipodi:docname="drawing.svg">
  <defs
     id="defs5189" />
  <sodipodi:namedview
     id="base"
     pagecolor="#ffffff"
     bordercolor="#666666"
     borderopacity="1.0"
     inkscape:pageopacity="0.0"
     inkscape:pageshadow="2"
     inkscape:zoom="0.7"
     inkscape:cx="156.6084"
     inkscape:cy="-243.37212"
     inkscape:document-units="px"
     inkscape:current-layer="layer1"
     showgrid="false"
     inkscape:window-width="1920"
     inkscape:window-height="1016"
     inkscape:window-x="0"
     inkscape:window-y="27"
     inkscape:window-maximized="1"
     fit-margin-top="0"
     fit-margin-left="0"
     fit-margin-right="0"
     fit-margin-bottom="0" />
  <metadata
     id="metadata5192">
    <rdf:RDF>
      <cc:Work
         rdf:about="">
        <dc:format>image/svg+xml</dc:format>
        <dc:type
           rdf:resource="http://purl.org/dc/dcmitype/StillImage" />
        <dc:title></dc:title>
      </cc:Work>
    </rdf:RDF>
  </metadata>
  <g
     inkscape:label="Layer 1"
     inkscape:groupmode="layer"
     id="layer1"
     transform="translate(-29.61811,-40.95303)">
    <g
       id="g8740"
       transform="translate(759.35754,397.81627)">
      <path
         style="fill:#ff0000;fill-rule:evenodd;stroke:none"
         id="path16-1"
         d="m -729.73937,-229.77543 426.47801,0 0,44.30197 -426.47801,0 0,-44.30197 z m 27.73186,22.05351 0,13.4102 -1.99593,0 -0.88817,-3.24694 c -1.60119,2.27456 -3.97324,3.41545 -7.12341,3.41545 -3.41552,0 -6.0796,-1.28292 -7.97894,-3.85652 -1.89236,-2.56639 -2.84504,-5.6906 -2.84504,-9.35936 0,-3.92148 1.00454,-7.19432 3.02011,-9.81968 2.00952,-2.61814 4.74476,-3.92808 8.19931,-3.92808 4.77715,0 7.88812,2.50861 9.34611,7.51864 l -3.07785,0.73954 c -0.44108,-1.92555 -1.27085,-3.31858 -2.48936,-4.19409 -1.2119,-0.87493 -2.541,-1.30878 -3.98599,-1.30878 -2.5539,0 -4.44031,1.03016 -5.65841,3.09171 -1.21221,2.06754 -1.82169,4.65318 -1.82169,7.77137 0,3.35046 0.68066,5.97582 2.04168,7.86828 1.36143,1.89243 3.20839,2.83957 5.55506,2.83957 1.82121,0 3.34461,-0.60356 4.56315,-1.81543 1.22453,-1.20527 1.83407,-2.8775 1.83407,-5.0034 0,-0.38935 -0.0131,-0.8623 -0.0385,-1.40685 l -6.41706,0 0,-2.71563 9.76087,0 z m 14.90796,13.57871 c -3.3312,0 -5.92406,-1.29616 -7.78403,-3.88238 -1.86055,-2.58627 -2.79383,-5.7622 -2.79383,-9.52123 0,-3.9275 0.97238,-7.16904 2.9232,-9.7228 1.95082,-2.56037 4.53107,-3.83723 7.75215,-3.83723 3.20179,0 5.76879,1.2576 7.70637,3.76621 1.9382,2.51467 2.90398,5.68399 2.90398,9.5086 0,3.66818 -0.93992,6.87059 -2.81972,9.59946 -1.87981,2.72825 -4.51119,4.08937 -7.88812,4.08937 z m 0.0776,-2.6374 c 2.26252,0 4.03824,-1.03078 5.3151,-3.09893 1.2769,-2.06094 1.91894,-4.71879 1.91894,-7.97176 0,-3.34502 -0.6613,-5.9439 -1.9839,-7.80386 -1.32202,-1.86059 -3.07847,-2.79387 -5.2694,-2.79387 -2.21678,0 -3.97925,1.0043 -5.28201,3.0207 -1.30335,2.00921 -1.95804,4.64661 -1.95804,7.90077 0,3.17593 0.66133,5.76219 1.9773,7.75211 1.31538,1.99594 3.07847,2.99484 5.28201,2.99484 z m 30.81353,-0.72028 0,2.84559 -15.30267,0 0,-25.91963 3.32518,0 0,23.07404 11.97749,0 z m 6.98734,2.84559 -3.24695,0 0,-25.91963 3.24695,0 0,25.91963 z m 23.9243,0 -3.31916,0 -2.62477,-7.577 -9.58619,0 -2.32029,7.577 -2.70962,0 8.40681,-25.91963 3.70728,0 8.44594,25.91963 z m -6.62449,-10.00741 -3.98586,-12.45767 -4.02562,12.45767 8.01148,0 z m 15.17391,10.00741 -3.2283,0 0,-23.07466 -7.42119,0 0,-2.84497 18.09592,0 0,2.84497 -7.44643,0 0,23.07466 z m 29.58179,0 -3.24756,0 0,-12.34095 -12.01722,0 0,12.34095 -3.24694,0 0,-25.91963 3.24694,0 0,10.72649 12.01722,0 0,-10.72649 3.24756,0 0,25.91963 z m 35.27959,0 -3.15006,0 -13.40419,-22.59507 0.0323,1.70532 c 0.0385,0.64806 0.0584,1.19203 0.0584,1.6331 l 0,19.25665 -2.61814,0 0,-25.91963 4.06351,0 12.53528,21.13646 -0.0385,-1.80821 c -0.0265,-0.70642 -0.0391,-1.33525 -0.0391,-1.8798 l 0,-17.44845 2.56037,0 0,25.91963 z m 23.92311,0 -3.31858,0 -2.62474,-7.577 -9.58622,0 -2.32026,7.577 -2.70961,0 8.40681,-25.91963 3.70727,0 8.44533,25.91963 z m -6.6245,-10.00741 -3.98586,-12.45767 -4.02499,12.45767 8.01085,0 z m 15.17392,10.00741 -3.2283,0 0,-23.07466 -7.42119,0 0,-2.84497 18.09654,0 0,2.84497 -7.44705,0 0,23.07466 z m 14.31763,0 -3.24694,0 0,-25.91963 3.24694,0 0,25.91963 z m 15.42,0.51209 c -3.33119,0 -5.92406,-1.29616 -7.78402,-3.88238 -1.86055,-2.58627 -2.79383,-5.7622 -2.79383,-9.52123 0,-3.9275 0.9718,-7.16904 2.9232,-9.7228 1.95082,-2.56037 4.53106,-3.83723 7.75215,-3.83723 3.20182,0 5.76879,1.2576 7.70637,3.76621 1.9382,2.51467 2.90398,5.68399 2.90398,9.5086 0,3.66818 -0.93992,6.87059 -2.81973,9.59946 -1.8798,2.72825 -4.51118,4.08937 -7.88812,4.08937 z m 0.0776,-2.6374 c 2.2619,0 4.03823,-1.03078 5.3151,-3.09893 1.2769,-2.06094 1.91894,-4.71879 1.91894,-7.97176 0,-3.34502 -0.6613,-5.9439 -1.9839,-7.80386 -1.32202,-1.86059 -3.07847,-2.79387 -5.2694,-2.79387 -2.21678,0 -3.97984,1.0043 -5.28202,3.0207 -1.30334,2.00921 -1.958,4.64661 -1.958,7.90077 0,3.17593 0.6613,5.76219 1.97726,7.75211 1.31542,1.99594 3.07847,2.99484 5.28202,2.99484 z m 34.59244,2.12531 -3.15007,0 -13.40361,-22.59507 0.0327,1.70532 c 0.0385,0.64806 0.0584,1.19203 0.0584,1.6331 l 0,19.25665 -2.61876,0 0,-25.91963 4.06351,0 12.53532,21.13646 -0.0385,-1.80821 c -0.0258,-0.70642 -0.0391,-1.33525 -0.0391,-1.8798 l 0,-17.44845 2.56037,0 0,25.91963 z m 23.92368,0 -3.31854,0 -2.62536,-7.577 -9.58621,0 -2.3203,7.577 -2.70958,0 8.40739,-25.91963 3.70669,0 8.44591,25.91963 z m -6.62446,-10.00741 -3.98589,-12.45767 -4.025,12.45767 8.01089,0 z m 25.31067,7.16182 0,2.84559 -15.30325,0 0,-25.91963 3.32517,0 0,23.07404 11.97808,0 z m 13.46258,2.84559 0,-25.91963 10.25412,0 c 2.57962,0 4.49795,0.63483 5.74235,1.89907 1.251,1.26424 1.8732,2.73547 1.8732,4.40768 0,2.93586 -1.53622,4.88668 -4.59544,5.84644 1.82145,0.46635 3.17593,1.30214 4.0641,2.50803 0.88754,1.19924 1.32862,2.56036 1.32862,4.08335 0,2.03566 -0.68716,3.73977 -2.06094,5.11413 -1.37435,1.37377 -3.49365,2.06093 -6.35189,2.06093 l -10.25412,0 z m 3.13023,-14.81046 5.64544,0 c 2.34014,0 3.90222,-0.44709 4.68691,-1.34124 0.78404,-0.88816 1.17937,-1.9382 1.17937,-3.14405 0,-1.18604 -0.42119,-2.15182 -1.26424,-2.8841 -0.84243,-0.73232 -2.10004,-1.10179 -3.77224,-1.10179 l -6.47524,0 0,8.47118 z m 0,11.96487 6.95542,0 c 1.69146,0 3.00684,-0.41459 3.9275,-1.23776 0.92668,-0.82317 1.38701,-1.89246 1.38701,-3.20843 0,-0.92668 -0.2076,-1.78235 -0.62884,-2.57302 -0.41459,-0.79067 -1.00426,-1.39963 -1.76305,-1.83469 -0.75818,-0.42721 -1.89246,-0.64146 -3.4028,-0.64146 l -6.47524,0 0,9.49536 z m 37.82672,2.84559 -3.31857,0 -2.62475,-7.577 -9.58621,0 -2.32088,7.577 -2.709,0 8.40681,-25.91963 3.70728,0 8.44532,25.91963 z m -6.62449,-10.00741 -3.98586,-12.45767 -4.025,12.45767 8.01086,0 z m 29.08957,10.00741 -3.15007,0 -13.40419,-22.59507 0.033,1.70532 c 0.0385,0.64806 0.0584,1.19203 0.0584,1.6331 l 0,19.25665 -2.61876,0 0,-25.91963 4.06351,0 12.53528,21.13646 -0.0385,-1.80821 c -0.0258,-0.70642 -0.0391,-1.33525 -0.0391,-1.8798 l 0,-17.44845 2.56037,0 0,25.91963 z m 26.96306,0 -3.55201,0 -7.74551,-14.29837 -5.94332,7.38869 0,6.90968 -3.24697,0 0,-25.91963 3.24697,0 0,15.03729 11.71875,-15.03729 3.51291,0 -7.02585,9.07413 9.03503,16.8455 z"
         inkscape:connector-curvature="0" />
      <path
         style="fill:#000080;fill-rule:evenodd;stroke:none"
         id="path18-4"
         d="m -641.61037,-277.48804 -11.98471,0 0,-22.27013 52.49158,0 c 0,12.82051 -0.89298,22.35617 -2.70841,28.60817 -1.72816,6.02096 -5.38732,12.12914 -10.97619,18.3234 -5.44571,6.13586 -12.04249,10.60193 -19.82108,13.42523 -7.77921,2.79445 -16.10479,4.20612 -24.97853,4.20612 -13.22369,0 -25.23728,-2.18968 -36.04142,-6.59798 -10.86068,-4.26331 -19.24424,-11.35051 -25.15031,-21.23216 -5.96395,-9.73784 -8.95999,-20.6569 -8.95999,-32.75713 0,-18.26501 6.02141,-33.01587 18.06373,-44.22257 11.92711,-11.20728 26.56246,-16.79615 43.90622,-16.79615 14.46203,0 25.78485,3.5147 33.99551,10.54416 l 0,-10.60616 28.29106,0 0,43.45053 -28.29106,0 c -2.47735,-5.07018 -5.67557,-8.87374 -9.65121,-11.46602 -3.97627,-2.59345 -8.58553,-3.8896 -13.88681,-3.8896 -7.4326,0 -12.87765,2.42019 -16.3635,7.26052 -3.42807,4.83974 -5.15746,13.71289 -5.15746,26.64833 0,12.87831 1.81543,21.63654 5.41679,26.24639 3.62966,4.66645 8.95982,6.99995 15.93147,6.99995 10.57308,0 15.87432,-5.30065 15.87432,-15.8737 z"
         inkscape:connector-curvature="0" />
      <path
         style="fill:#000080;fill-rule:evenodd;stroke:none"
         id="path20-3"
         d="m -547.27309,-235.19525 -49.24821,0 0,-28.70084 10.50925,0 0,-64.17604 -10.50925,0 0,-28.73093 56.8433,0 43.62564,62.70179 0,-33.97086 -9.74389,0 0,-28.73093 136.5278,0 c 14.56375,0 25.84384,0.83579 33.84145,2.5363 7.87849,1.76126 14.0559,5.22303 18.53218,10.4154 4.47628,5.28202 6.74482,11.48948 6.74482,18.53214 0,6.86398 -2.1488,12.35481 -6.3868,16.44298 -4.38663,4.17782 -9.66923,7.10284 -15.90561,8.71428 8.56448,2.56638 15.12997,6.53543 19.7555,11.9071 4.655,5.46073 6.9831,11.60863 6.9831,18.44252 0,8.14686 -2.62594,15.09988 -7.87849,20.8001 -5.22242,5.67013 -12.44442,9.37018 -21.57633,11.10136 -9.04225,1.82025 -22.23223,2.71563 -39.60064,2.71563 l -132.56719,-0.0915 -50.54375,-72.53289 0,43.8934 10.59712,0 0,28.73034 z m 69.81969,-101.33844 26.34145,19.13691 26.34147,-19.13691 -10.05916,30.96577 26.34866,19.14234 -32.5694,-0.003 -10.06157,30.9658 -10.06158,-30.9658 -32.5706,0.003 26.35169,-19.14172 -10.06096,-30.96639 z m 91.5037,50.72609 0,23.93393 10.56345,0 c 6.77487,0 11.6393,-0.86529 14.59322,-2.62598 2.92441,-1.73118 4.38721,-4.8343 4.38721,-9.25164 0,-4.14773 -1.31297,-7.19192 -3.93953,-9.16138 -2.62595,-1.93999 -7.69919,-2.89493 -15.21904,-2.89493 l -10.38531,0 z m 0,-44.31583 0,22.17266 10.38531,0 c 7.07217,0 11.6977,-1.01451 13.90606,-3.04356 2.0892,-2.05911 3.16331,-4.71519 3.16331,-8.0578 0,-2.83475 -0.98445,-5.40117 -2.89494,-7.66909 -1.93998,-2.26793 -7.19191,-3.40221 -15.81654,-3.40221 l -8.7432,0 z"
         inkscape:connector-curvature="0" />
      <path
         style="fill:#ffffff;fill-rule:evenodd;stroke:none"
         id="path22-9"
         d="m -477.45402,-336.53369 26.34207,19.13691 26.34206,-19.13691 -10.05975,30.96577 26.34928,19.14234 -32.57002,-0.003 -10.06157,30.96577 -10.06158,-30.96577 -32.56998,0.003 26.35169,-19.14172 -10.0622,-30.96639 z"
         inkscape:connector-curvature="0" />
      <path
         style="fill:#cccccc;fill-rule:evenodd;stroke:none"
         id="path24-7"
         d="m -473.50062,-330.44655 22.38746,16.26305 22.38688,-16.26305 -8.54942,26.3162 22.39348,16.26845 -27.68031,-0.003 -8.55121,26.31679 -8.55063,-26.31679 -27.68031,0.003 22.39527,-16.26787 -8.55121,-26.31678 z"
         inkscape:connector-curvature="0" />
      <path
         style="fill:#ffffff;fill-rule:evenodd;stroke:none"
         id="path26-7"
         d="m -471.26038,-327.00284 20.14843,14.63718 20.14784,-14.63718 -7.69379,23.68483 20.15386,14.64136 -24.91234,-0.003 -7.69557,23.68479 -7.69616,-23.68479 -24.91176,0.003 20.15565,-14.64078 -7.69616,-23.68541 z"
         inkscape:connector-curvature="0" />
    </g>
  </g>
</svg>
