<?xml version="1.0" standalone="no"?>
<!DOCTYPE svg PUBLIC "-//W3C//DTD SVG 1.1//EN" "http://www.w3.org/Graphics/SVG/1.1/DTD/svg11.dtd">
<svg width="100%" height="100%" viewBox="0 0 512 206" version="1.1" xmlns="http://www.w3.org/2000/svg" xmlns:xlink="http://www.w3.org/1999/xlink" xml:space="preserve" style="fill-rule:evenodd;clip-rule:evenodd;stroke-linejoin:round;stroke-miterlimit:1.41421;">
    <g id="g8740" transform="matrix(1.20053,0,0,1.20053,876.075,428.425)">
        <path id="path16-1" d="M-729.739,-229.775L-303.261,-229.775L-303.261,-185.473L-729.739,-185.473L-729.739,-229.775L-729.739,-229.775ZM-702.008,-207.722L-702.008,-194.312L-704.003,-194.312L-704.892,-197.559C-706.493,-195.284 -708.865,-194.143 -712.015,-194.143C-715.431,-194.143 -718.095,-195.426 -719.994,-198C-721.886,-200.566 -722.839,-203.69 -722.839,-207.359C-722.839,-211.281 -721.834,-214.553 -719.819,-217.179C-717.809,-219.797 -715.074,-221.107 -711.62,-221.107C-706.842,-221.107 -703.731,-218.598 -702.273,-213.588L-705.351,-212.849C-705.792,-214.774 -706.622,-216.167 -707.841,-217.043C-709.053,-217.918 -710.382,-218.352 -711.827,-218.352C-714.381,-218.352 -716.267,-217.321 -717.485,-215.26C-718.697,-213.192 -719.307,-210.607 -719.307,-207.488C-719.307,-204.138 -718.626,-201.513 -717.265,-199.62C-715.904,-197.728 -714.057,-196.781 -711.71,-196.781C-709.889,-196.781 -708.365,-197.384 -707.147,-198.596C-705.922,-199.801 -705.313,-201.474 -705.313,-203.599C-705.313,-203.989 -705.326,-204.462 -705.351,-205.006L-711.768,-205.006L-711.768,-207.722L-702.008,-207.722L-702.008,-207.722ZM-687.1,-194.143C-690.431,-194.143 -693.024,-195.439 -694.884,-198.026C-696.744,-200.612 -697.677,-203.788 -697.677,-207.547C-697.677,-211.474 -696.705,-214.716 -694.754,-217.27C-692.803,-219.83 -690.223,-221.107 -687.002,-221.107C-683.8,-221.107 -681.233,-219.849 -679.296,-217.341C-677.357,-214.826 -676.392,-211.657 -676.392,-207.832C-676.392,-204.164 -677.332,-200.961 -679.211,-198.233C-681.091,-195.504 -683.723,-194.143 -687.1,-194.143L-687.1,-194.143ZM-687.022,-196.781C-684.759,-196.781 -682.984,-197.811 -681.707,-199.88C-680.43,-201.94 -679.788,-204.598 -679.788,-207.851C-679.788,-211.196 -680.449,-213.795 -681.772,-215.655C-683.094,-217.516 -684.85,-218.449 -687.041,-218.449C-689.258,-218.449 -691.02,-217.445 -692.323,-215.428C-693.627,-213.419 -694.281,-210.782 -694.281,-207.528C-694.281,-204.352 -693.62,-201.765 -692.304,-199.775C-690.989,-197.78 -689.225,-196.781 -687.022,-196.781L-687.022,-196.781ZM-656.208,-197.501L-656.208,-194.655L-671.511,-194.655L-671.511,-220.575L-668.186,-220.575L-668.186,-197.501L-656.208,-197.501ZM-649.221,-194.655L-652.468,-194.655L-652.468,-220.575L-649.221,-220.575L-649.221,-194.655ZM-625.297,-194.655L-628.616,-194.655L-631.241,-202.232L-640.827,-202.232L-643.147,-194.655L-645.857,-194.655L-637.45,-220.575L-633.743,-220.575L-625.297,-194.655ZM-631.921,-204.663L-635.907,-217.12L-639.933,-204.663L-631.921,-204.663ZM-616.747,-194.655L-619.976,-194.655L-619.976,-217.73L-627.397,-217.73L-627.397,-220.575L-609.301,-220.575L-609.301,-217.73L-616.747,-217.73L-616.747,-194.655ZM-587.166,-194.655L-590.413,-194.655L-590.413,-206.996L-602.43,-206.996L-602.43,-194.655L-605.677,-194.655L-605.677,-220.575L-602.43,-220.575L-602.43,-209.848L-590.413,-209.848L-590.413,-220.575L-587.166,-220.575L-587.166,-194.655ZM-551.886,-194.655L-555.036,-194.655L-568.44,-217.25L-568.408,-215.545C-568.369,-214.897 -568.35,-214.353 -568.35,-213.912L-568.35,-194.655L-570.968,-194.655L-570.968,-220.575L-566.904,-220.575L-554.369,-199.438L-554.407,-201.247C-554.434,-201.953 -554.446,-202.582 -554.446,-203.126L-554.446,-220.575L-551.886,-220.575L-551.886,-194.655L-551.886,-194.655ZM-527.963,-194.655L-531.281,-194.655L-533.906,-202.232L-543.492,-202.232L-545.813,-194.655L-548.522,-194.655L-540.115,-220.575L-536.408,-220.575L-527.963,-194.655ZM-534.587,-204.663L-538.573,-217.12L-542.598,-204.663L-534.587,-204.663ZM-519.413,-194.655L-522.642,-194.655L-522.642,-217.73L-530.063,-217.73L-530.063,-220.575L-511.966,-220.575L-511.966,-217.73L-519.413,-217.73L-519.413,-194.655ZM-505.096,-194.655L-508.343,-194.655L-508.343,-220.575L-505.096,-220.575L-505.096,-194.655ZM-489.676,-194.143C-493.007,-194.143 -495.6,-195.439 -497.46,-198.026C-499.32,-200.612 -500.254,-203.788 -500.254,-207.547C-500.254,-211.474 -499.282,-214.716 -497.33,-217.27C-495.38,-219.83 -492.799,-221.107 -489.578,-221.107C-486.377,-221.107 -483.81,-219.849 -481.872,-217.341C-479.934,-214.826 -478.968,-211.657 -478.968,-207.832C-478.968,-204.164 -479.908,-200.961 -481.788,-198.233C-483.668,-195.504 -486.299,-194.143 -489.676,-194.143L-489.676,-194.143ZM-489.598,-196.781C-487.336,-196.781 -485.56,-197.811 -484.283,-199.88C-483.006,-201.94 -482.364,-204.598 -482.364,-207.851C-482.364,-211.196 -483.025,-213.795 -484.348,-215.655C-485.67,-217.516 -487.427,-218.449 -489.617,-218.449C-491.834,-218.449 -493.597,-217.445 -494.9,-215.428C-496.203,-213.419 -496.858,-210.782 -496.858,-207.528C-496.858,-204.352 -496.196,-201.765 -494.88,-199.775C-493.565,-197.78 -491.802,-196.781 -489.598,-196.781L-489.598,-196.781ZM-455.006,-194.655L-458.156,-194.655L-471.559,-217.25L-471.527,-215.545C-471.488,-214.897 -471.468,-214.353 -471.468,-213.912L-471.468,-194.655L-474.087,-194.655L-474.087,-220.575L-470.024,-220.575L-457.488,-199.438L-457.527,-201.247C-457.553,-201.953 -457.566,-202.582 -457.566,-203.126L-457.566,-220.575L-455.006,-220.575L-455.006,-194.655L-455.006,-194.655ZM-431.082,-194.655L-434.401,-194.655L-437.026,-202.232L-446.612,-202.232L-448.933,-194.655L-451.642,-194.655L-443.235,-220.575L-439.528,-220.575L-431.082,-194.655ZM-437.707,-204.663L-441.692,-217.12L-445.717,-204.663L-437.707,-204.663ZM-412.396,-197.501L-412.396,-194.655L-427.699,-194.655L-427.699,-220.575L-424.374,-220.575L-424.374,-197.501L-412.396,-197.501ZM-398.933,-194.655L-398.933,-220.575L-388.679,-220.575C-386.1,-220.575 -384.181,-219.94 -382.937,-218.676C-381.686,-217.412 -381.064,-215.94 -381.064,-214.268C-381.064,-211.332 -382.6,-209.382 -385.659,-208.422C-383.838,-207.955 -382.483,-207.12 -381.595,-205.914C-380.707,-204.714 -380.266,-203.353 -380.266,-201.83C-380.266,-199.795 -380.954,-198.091 -382.327,-196.716C-383.702,-195.342 -385.821,-194.655 -388.679,-194.655L-398.933,-194.655L-398.933,-194.655ZM-395.803,-209.466L-390.158,-209.466C-387.818,-209.466 -386.255,-209.913 -385.471,-210.807C-384.687,-211.695 -384.291,-212.745 -384.291,-213.951C-384.291,-215.137 -384.713,-216.103 -385.556,-216.835C-386.398,-217.567 -387.656,-217.937 -389.328,-217.937L-395.803,-217.937L-395.803,-209.466ZM-395.803,-197.501L-388.848,-197.501C-387.156,-197.501 -385.841,-197.915 -384.92,-198.739C-383.993,-199.562 -383.533,-200.631 -383.533,-201.947C-383.533,-202.874 -383.741,-203.729 -384.162,-204.52C-384.577,-205.311 -385.166,-205.92 -385.925,-206.355C-386.683,-206.782 -387.818,-206.996 -389.328,-206.996L-395.803,-206.996L-395.803,-197.501ZM-357.976,-194.655L-361.295,-194.655L-363.92,-202.232L-373.506,-202.232L-375.827,-194.655L-378.536,-194.655L-370.129,-220.575L-366.422,-220.575L-357.976,-194.655ZM-364.601,-204.663L-368.587,-217.12L-372.612,-204.663L-364.601,-204.663ZM-335.511,-194.655L-338.661,-194.655L-352.066,-217.25L-352.033,-215.545C-351.994,-214.897 -351.974,-214.353 -351.974,-213.912L-351.974,-194.655L-354.593,-194.655L-354.593,-220.575L-350.529,-220.575L-337.994,-199.438L-338.033,-201.247C-338.058,-201.953 -338.072,-202.582 -338.072,-203.126L-338.072,-220.575L-335.511,-220.575L-335.511,-194.655L-335.511,-194.655ZM-308.548,-194.655L-312.1,-194.655L-319.846,-208.954L-325.789,-201.565L-325.789,-194.655L-329.036,-194.655L-329.036,-220.575L-325.789,-220.575L-325.789,-205.538L-314.07,-220.575L-310.557,-220.575L-317.583,-211.501L-308.548,-194.655Z" style="fill:rgb(255,0,0);"/>
        <path id="path18-4" d="M-641.61,-277.488L-653.595,-277.488L-653.595,-299.758L-601.103,-299.758C-601.103,-286.938 -601.996,-277.402 -603.812,-271.15C-605.54,-265.129 -609.199,-259.021 -614.788,-252.827C-620.234,-246.691 -626.831,-242.225 -634.609,-239.401C-642.388,-236.607 -650.714,-235.195 -659.588,-235.195C-672.811,-235.195 -684.825,-237.385 -695.629,-241.793C-706.49,-246.057 -714.873,-253.144 -720.779,-263.025C-726.743,-272.763 -729.739,-283.682 -729.739,-295.783C-729.739,-314.048 -723.718,-328.798 -711.676,-340.005C-699.749,-351.212 -685.113,-356.801 -667.769,-356.801C-653.307,-356.801 -641.985,-353.287 -633.774,-346.257L-633.774,-356.863L-605.483,-356.863L-605.483,-313.413L-633.774,-313.413C-636.251,-318.483 -639.45,-322.286 -643.425,-324.879C-647.401,-327.472 -652.011,-328.768 -657.312,-328.768C-664.745,-328.768 -670.19,-326.348 -673.675,-321.508C-677.104,-316.668 -678.833,-307.795 -678.833,-294.859C-678.833,-281.981 -677.018,-273.223 -673.416,-268.613C-669.787,-263.947 -664.456,-261.613 -657.485,-261.613C-646.912,-261.613 -641.61,-266.914 -641.61,-277.487L-641.61,-277.488Z" style="fill:rgb(0,0,128);"/>
        <g id="path20-3" transform="matrix(1,0,0,1,2.44245,-0.06018)">
            <path d="M-547.273,-235.195L-596.521,-235.195L-596.521,-263.896L-586.012,-263.896L-586.012,-328.072L-596.521,-328.072L-596.521,-356.803L-539.678,-356.803L-496.052,-294.101L-496.052,-328.072L-505.796,-328.072L-505.796,-356.803L-369.268,-356.803C-354.705,-356.803 -343.425,-355.967 -335.427,-354.267C-327.549,-352.506 -321.371,-349.044 -316.895,-343.851C-312.419,-338.569 -310.15,-332.362 -310.15,-325.319C-310.15,-318.455 -312.299,-312.964 -316.537,-308.876C-320.923,-304.698 -326.206,-301.773 -332.442,-300.162C-323.878,-297.596 -317.312,-293.627 -312.687,-288.255C-308.032,-282.794 -305.704,-276.646 -305.704,-269.812C-305.704,-261.665 -308.33,-254.712 -313.582,-249.012C-318.805,-243.342 -326.027,-239.642 -335.159,-237.911C-344.201,-236.091 -357.391,-235.195 -374.759,-235.195L-507.326,-235.287L-557.87,-307.82L-557.87,-263.926L-547.273,-263.926L-547.273,-235.195ZM-477.453,-336.534L-451.112,-317.397L-424.77,-336.534L-434.83,-305.568L-408.481,-286.426L-441.05,-286.429L-451.112,-255.463L-461.174,-286.429L-493.744,-286.426L-467.392,-305.567L-477.453,-336.534ZM-385.95,-285.808L-385.95,-261.874L-375.386,-261.874C-368.611,-261.874 -363.747,-262.739 -360.793,-264.5C-357.869,-266.231 -356.406,-269.334 -356.406,-273.751C-356.406,-277.899 -357.719,-280.943 -360.345,-282.913C-362.971,-284.853 -368.045,-285.808 -375.564,-285.808L-385.95,-285.808L-385.95,-285.808ZM-385.95,-330.123L-385.95,-307.951L-375.564,-307.951C-368.492,-307.951 -363.867,-308.965 -361.658,-310.994C-359.569,-313.053 -358.495,-315.71 -358.495,-319.052C-358.495,-321.887 -359.479,-324.453 -361.39,-326.721C-363.33,-328.989 -368.582,-330.123 -377.207,-330.123L-385.95,-330.123L-385.95,-330.123Z" style="fill:rgb(0,0,128);"/>
        </g>
    </g>
</svg>
