<?xml version="1.0" encoding="utf-8"?>
<!-- Generated by IcoMoon.io -->
<!DOCTYPE svg PUBLIC "-//W3C//DTD SVG 1.1//EN" "http://www.w3.org/Graphics/SVG/1.1/DTD/svg11.dtd">
<svg version="1.1" xmlns="http://www.w3.org/2000/svg" xmlns:xlink="http://www.w3.org/1999/xlink" width="1024" height="1024" viewBox="0 0 1024 1024"><g id="icomoon-ignore">
</g>
<path d="M512 640c0-35.346 28.654-64 64-64s64 28.654 64 64c0 35.346-28.654 64-64 64s-64-28.654-64-64zM928.032 416c-0.032 0-0.032 0 0 0l-0.032-192v-96c0-53.024-43.008-96-96-96h-656c-97.056 0-176 78.976-176 176v640c0 97.024 78.944 176 176 176h576c97.024 0 176-78.976 176-176v-48c0 0 0 0 0.032 0 127.936-96.032 127.936-287.968 0-384zM176 96h656c17.632 0 32 14.336 32 32v197.888c-10.048-3.584-20.736-5.888-32-5.888h-0.032v-160c0-17.696-14.336-32-32-32h-672c-17.664 0-32 14.304-32 32v126.176c-19.744-20.192-31.968-47.712-31.968-78.176 0-61.856 50.112-112 112-112zM799.968 192h-672v-32h672v32zM799.968 224v32h-672v-32h672zM799.968 288v32h-623.968c-17.28 0-33.408-4.224-48-11.2v-20.8h671.968zM864 848c0 61.856-50.144 112-112 112h-576c-61.888 0-112-50.144-112-112v-504.352c30.432 25.184 69.472 40.352 112 40.352h656c17.632 0 32 14.336 32 32v64h-288c-88.384 0-160 71.616-160 160s71.648 160 160 160h288v48zM904.864 736h-328.864c-52.928 0-96-43.072-96-96s43.072-96 96-96h288c19.744-0.256 39.328-9.824 51.264-25.728 3.328-4.48 5.92-9.504 8-14.752 0.288-0.704 0.8-1.248 1.056-1.984 23.008 30.176 35.68 67.168 35.68 106.464 0 49.216-19.872 94.88-55.136 128z"></path>
</svg>
